<?xml version="1.0" encoding="utf-8"?>
<!-- Generator: Adobe Illustrator 25.4.0, SVG Export Plug-In . SVG Version: 6.00 Build 0)  -->
<svg version="1.1" id="Layer_1" xmlns="http://www.w3.org/2000/svg" xmlns:xlink="http://www.w3.org/1999/xlink" x="0px" y="0px"
	 viewBox="0 0 1125 1198" style="enable-background:new 0 0 1125 1198;" xml:space="preserve">
<style type="text/css">
	.st0{clip-path:url(#SVGID_00000183240812218840581710000008424647116588044477_);}
	.st1{fill:#D5ECFF;}
	.st2{fill:#E4E4E4;}
	.st3{fill:#FFC200;}
	.st4{fill:#FDBB09;}
	.st5{fill:#FDCF09;}
	.st6{fill:#00549A;}
	.st7{fill:#644425;}
	.st8{fill:#54983F;}
	.st9{fill:#2991E5;}
	.st10{fill:#014472;}
	.st11{fill:#F2B65C;}
	.st12{fill:#A86C38;}
	.st13{fill:#915623;}
	.st14{fill:#B0DBFF;}
	.st15{fill:#133349;}
	.st16{fill:#ADADAD;}
	.st17{fill:#FFFBE4;}
	.st18{fill:#D0D0D0;}
	.st19{fill:#0E6EB5;}
	.st20{fill:#22567D;}
	.st21{fill:#FFF7CC;}
	.st22{fill:#D3AB00;}
</style>
<g>
	<defs>
		<rect id="SVGID_1_" width="1125" height="1199"/>
	</defs>
	<clipPath id="SVGID_00000108307546764916435480000008526454500898711454_">
		<use xlink:href="#SVGID_1_"  style="overflow:visible;"/>
	</clipPath>
	<g style="clip-path:url(#SVGID_00000108307546764916435480000008526454500898711454_);">
		<path id="Path_234" class="st1" d="M0.05,1081.3h1124.86V-0.12H0.1L0.05,1081.3z"/>
		<path id="Path_828" class="st2" d="M0.01,1156.64c0,0,449.12-28.34,664.13,26.53s460.77-59.84,460.77-59.84v-49.9
			c0,0-220.39-31.27-497.47-9.29c-277.09,21.98-324.44,31.34-627.43,9.34C-0.01,1073.5,0.01,1156.64,0.01,1156.64z"/>
		<g id="Group_120" transform="translate(-188.971 104.48) rotate(-74)">
			<g id="Group_118" transform="matrix(-0.259, -0.966, 0.966, -0.259, 72.03, 654.192)">
				<g id="Group_122" transform="translate(212.184 0) rotate(90)">
					<g id="Group_121" transform="translate(0 0)">
						<path id="Path_129" class="st3" d="M92.69,495.3l0-92.49c0-8.21-6.65-14.86-14.86-14.86c-8.21,0-14.86,6.65-14.86,14.86
							l0,92.49c0,8.21,6.65,14.86,14.86,14.86S92.69,503.51,92.69,495.3z"/>
						<path id="Path_130" class="st3" d="M16.77,518.21c8.18,0.03,14.84-6.57,14.87-14.75c0.01-1.33-0.17-2.66-0.52-3.94
							l-11.97-44.68c-2.12-7.93-10.27-12.64-18.2-10.51c-7.93,2.12-12.64,10.27-10.51,18.2L2.41,507.2
							C4.16,513.69,10.05,518.2,16.77,518.21z"/>
						<path id="Path_131" class="st3" d="M-50.36,479.44L-50.36,479.44l-23.13-40.06c-4.11-7.11-13.2-9.54-20.3-5.43
							s-9.54,13.2-5.43,20.3L-53,534.33c2.65,4.61,7.56,7.45,12.88,7.45l0,0c8.2,0.01,14.86-6.63,14.87-14.83
							c0-2.61-0.68-5.18-1.99-7.45L-50.36,479.44z"/>
						<path id="Path_132" class="st3" d="M-132.19,521.2c-5.81,5.79-5.82,15.19-0.03,21c0.01,0.01,0.02,0.02,0.03,0.03l32.7,32.69
							c5.8,5.81,15.2,5.81,21.01,0.02s5.81-15.2,0.02-21.01l-32.69-32.72c-5.78-5.81-15.17-5.83-20.98-0.05
							C-132.15,521.17-132.17,521.18-132.19,521.2z"/>
						<path id="Path_133" class="st3" d="M-146.18,655.8l-44.67-11.98c-7.93-2.13-16.08,2.58-18.21,10.51
							c-2.13,7.93,2.58,16.08,10.51,18.21l44.68,11.97c7.91,2.18,16.09-2.47,18.27-10.38s-2.47-16.09-10.38-18.27
							C-146.05,655.84-146.11,655.82-146.18,655.8z"/>
						<path id="Path_134" class="st3" d="M-204.31,746.07h46.23c8.21,0.11,14.95-6.46,15.06-14.67c0.11-8.21-6.46-14.95-14.67-15.06
							c-0.13,0-0.26,0-0.4,0l-92.48,0c-8.21,0.11-14.77,6.85-14.67,15.06c0.11,8.05,6.61,14.56,14.67,14.67H-204.31L-204.31,746.07z
							"/>
						<path id="Path_135" class="st3" d="M-153.88,777.91l-44.68,11.97c-7.93,2.14-12.62,10.3-10.49,18.23
							c1.75,6.48,7.62,10.99,14.33,11c1.31,0.01,2.6-0.17,3.86-0.53l44.68-11.97c7.98-1.92,12.9-9.94,10.98-17.93
							c-1.92-7.98-9.94-12.9-17.93-10.98C-153.37,777.76-153.63,777.83-153.88,777.91z"/>
						<path id="Path_138" class="st3" d="M138.89,518.21c6.72-0.01,12.61-4.52,14.36-11.01l11.95-44.68
							c2.05-7.95-2.73-16.06-10.68-18.11c-7.85-2.03-15.87,2.61-18.04,10.41l-11.94,44.69c-2.13,7.92,2.56,16.06,10.48,18.19
							c0.01,0,0.02,0.01,0.03,0.01C136.31,518.05,137.59,518.21,138.89,518.21z"/>
						<path id="Path_139" class="st3" d="M-199.12,554.15c-7.11-4.11-16.21-1.67-20.31,5.44c-4.11,7.11-1.67,16.21,5.44,20.31l0,0
							l40.02,23.09l0.04,0.04l15.07,8.67l24.97,14.43c7.11,4.1,16.2,1.66,20.31-5.44c4.1-7.11,1.67-16.2-5.44-20.31l-40.06-23.11
							L-199.12,554.15z"/>
						<path id="Path_140" class="st3" d="M-219.44,902.82c4.1,7.11,13.19,9.56,20.31,5.46l40-23.11l0.06-0.02l12.09-7l27.93-16.1
							c3.43-1.97,5.93-5.23,6.93-9.06c2.13-7.91-2.56-16.06-10.47-18.19c-3.82-1.03-7.89-0.49-11.31,1.5l-19.63,11.34l-60.46,34.91
							c-7.1,4.08-9.54,13.15-5.46,20.25C-219.45,902.8-219.44,902.81-219.44,902.82z"/>
						<path id="Path_141" class="st3" d="M249.45,433.94c-7.12-4.08-16.19-1.65-20.32,5.44l-23.09,40.02l-0.02,0.04l-9.28,16.08
							l-13.84,23.97c-4.1,7.1-1.67,16.19,5.43,20.29c2.26,1.3,4.82,1.99,7.42,1.99h0.02c5.32,0,10.23-2.84,12.88-7.45l7.62-13.2
							l38.62-66.88C258.99,447.14,256.56,438.05,249.45,433.94z"/>
					</g>
					<circle id="Ellipse_10" class="st4" cx="82.87" cy="734.32" r="206.8"/>
					<path id="Path_142" class="st5" d="M95.12,543.32c109.93,0,199.04,89.11,199.04,199.04c0,109.93-89.11,199.04-199.04,199.04
						s-199.04-89.11-199.04-199.04c0,0,0,0,0,0C-103.91,632.43-14.8,543.32,95.12,543.32z"/>
				</g>
			</g>
		</g>
		<g transform="matrix(1, 0, 0, 1, 0, 0)">
			<path id="Path_233-2" class="st6" d="M0.13,1173.48c0,0,374.09-76.88,668.58-33.75c294.49,43.13,456.19-42.2,456.19-42.2v-65.11
				c0,0-220.39-45.17-497.47-13.4S302.99,1064.27,0,1032.5C-0.01,1032.51,0.13,1173.48,0.13,1173.48z"/>
		</g>
		<g id="Group_144" transform="translate(-1482.975 -138.595)">
			<g id="Group_61" transform="translate(1598.272 510.694)">
				<g id="Group_60" transform="translate(0 0)">
					<g id="Group_59">
						<g id="Group_58">
							<g id="Group_55">
								<path id="Path_89" class="st7" d="M199.07,533.24l1.92-0.29c0.97,7.74-1.24,15.54-6.14,21.62
									c-5.37,6.08-13.76,9.15-24.94,9.15c-0.62,0-1.25,0-1.89-0.03l0.12-3.88c10.91,0.32,18.92-2.3,23.8-7.79
									c6.73-7.58,5.26-18.32,5.23-18.49L199.07,533.24L199.07,533.24z"/>
							</g>
							<g id="Group_56" transform="translate(11.091 0.111)">
								<path id="Path_90" class="st7" d="M187.98,533.13l-1.91,0.29l0,0L187.98,533.13L187.98,533.13z"/>
							</g>
							<g id="Group_57" transform="translate(11.09 0.111)">
								<path id="Path_91" class="st7" d="M187.98,533.13l-1.91,0.29l0,0L187.98,533.13z"/>
							</g>
						</g>
					</g>
				</g>
			</g>
			<g id="Group_66" transform="translate(1583.85 492.333)">
				<g id="Group_65" transform="translate(0)">
					<g id="Group_64">
						<g id="Group_63">
							<g id="Group_62">
								<path id="Path_92" class="st7" d="M177.6,529.92l0.12,3.88c-0.64,0.02-1.27,0.03-1.89,0.03c-11.19,0-19.57-3.07-24.95-9.15
									c-4.9-6.07-7.11-13.88-6.14-21.62l3.83,0.58l-1.91-0.29l1.91,0.29c-0.02,0.11-1.52,10.89,5.23,18.49
									C158.68,527.62,166.69,530.24,177.6,529.92z"/>
							</g>
						</g>
					</g>
				</g>
			</g>
			<g id="Group_72" transform="translate(1584.452 461.797)">
				<g id="Group_71" transform="translate(0 0)">
					<g id="Group_70">
						<g id="Group_69">
							<g id="Group_67" transform="translate(0.808 0.111)">
								<path id="Path_93" class="st7" d="M146.83,453.52L146.83,453.52l1.9,0.29L146.83,453.52z"/>
							</g>
							<g id="Group_68">
								<path id="Path_94" class="st7" d="M178.59,480.2l0.12,3.88c-0.64,0.02-1.27,0.03-1.89,0.03c-11.19,0-19.57-3.07-24.94-9.15
									c-4.9-6.07-7.11-13.88-6.14-21.62l1.92,0.29l0,0l1.91,0.29l-1.9-0.29l1.9,0.29c-0.02,0.11-1.52,10.89,5.23,18.49
									C159.66,477.9,167.67,480.53,178.59,480.2z"/>
							</g>
						</g>
					</g>
				</g>
			</g>
			<g id="Group_78" transform="translate(1583.85 531.47)">
				<g id="Group_77" transform="translate(0)">
					<g id="Group_76">
						<g id="Group_75">
							<g id="Group_73" transform="translate(0.808 0.111)">
								<path id="Path_95" class="st7" d="M145.85,566.95h0.02l1.89,0.29L145.85,566.95z"/>
							</g>
							<g id="Group_74">
								<path id="Path_96" class="st7" d="M177.6,593.64l0.12,3.88c-0.64,0.02-1.27,0.03-1.89,0.03c-11.19,0-19.57-3.07-24.95-9.15
									c-4.9-6.07-7.11-13.88-6.14-21.62l1.93,0.29h-0.02l1.91,0.29l-1.89-0.29l1.89,0.28c-0.02,0.11-1.52,10.89,5.23,18.49
									C158.68,591.34,166.69,593.96,177.6,593.64z"/>
							</g>
						</g>
					</g>
				</g>
			</g>
			<g id="Group_85" transform="translate(1599.323 476.413)">
				<g id="Group_84" transform="translate(0 0)">
					<g id="Group_83">
						<g id="Group_82">
							<g id="Group_79" transform="translate(11.09 0.111)">
								<path id="Path_97" class="st7" d="M189.69,477.32l-1.91,0.29l0,0L189.69,477.32z"/>
							</g>
							<g id="Group_80">
								<path id="Path_98" class="st7" d="M196.57,498.75c-5.37,6.08-13.76,9.15-24.94,9.15c-0.62,0-1.25,0-1.89-0.03l0.12-3.88
									c10.91,0.32,18.92-2.3,23.8-7.79c6.73-7.58,5.26-18.32,5.23-18.49l3.83-0.58C203.68,484.88,201.46,492.68,196.57,498.75z"/>
							</g>
						</g>
					</g>
				</g>
			</g>
			<g id="Group_89" transform="translate(1595.12 443.908)">
				<g id="Group_88" transform="translate(0 0)">
					<g id="Group_87">
						<g id="Group_86">
							<path id="Path_100" class="st7" d="M171.87,743.89h-8.99l2.25-319.53v-0.14h8.99v0.14l2.25,319.53H171.87z"/>
						</g>
					</g>
				</g>
			</g>
			<g id="Group_93" transform="translate(1578.589 431.246)">
				<g id="Group_92" transform="translate(0 0)">
					<g id="Group_91">
						<g id="Group_90">
							<path id="Path_101" class="st8" d="M157.28,405.48c22.21-8.45,30.36,14.36,30.36,14.36c12.65-17.46,23.33-2.82,23.33-2.82
								c16.29-6.19,18.27,14.08,18.27,14.08c3.77,0.2,6.79,3.21,6.99,6.98c0.73,7-4.02,13.4-10.94,14.72
								c-35.06,7.05-70.63-0.13-83.79-3.38c-3.85-0.91-6.23-4.77-5.32-8.61c0.07-0.31,0.17-0.62,0.28-0.92
								c1.23-2.69,4.11-4.22,7.03-3.72C143.51,436.17,135.07,413.93,157.28,405.48z"/>
						</g>
					</g>
				</g>
			</g>
			<g id="Group_97" transform="translate(1572.187 483.063)">
				<g id="Group_96" transform="translate(0 0)">
					<g id="Group_95">
						<g id="Group_94">
							<path id="Path_102" class="st8" d="M151.51,488.17c16.29-2.53,20.24,19.85,20.24,19.85c2.77-5.14,8.22-8.26,14.06-8.03
								c2.99,0.04,5.68,1.8,6.93,4.51c3.17,6.39,0.57,14.14-5.82,17.31c-1.06,0.52-2.18,0.9-3.34,1.12
								c-14.77,3.02-40.24,1.14-49.28,0.32c-3.31-0.26-6.26-2.17-7.86-5.08c-1.21-2.16-1.19-4.79,0.05-6.93
								c3.66-6.76,10.68-2.81,10.68-2.81S135.2,490.7,151.51,488.17z"/>
						</g>
					</g>
				</g>
			</g>
			<g id="Group_101" transform="translate(1600.497 467.65)">
				<g id="Group_100" transform="translate(0 0)">
					<g id="Group_99">
						<g id="Group_98">
							<path id="Path_103" class="st8" d="M225.56,481.43c0.99,1.7,1,3.8,0.04,5.52c-1.27,2.32-3.62,3.84-6.26,4.04
								c-7.21,0.65-27.5,2.15-39.27-0.26c-5.59-1.06-9.25-6.45-8.19-12.03c0.18-0.92,0.48-1.82,0.89-2.66
								c0.99-2.16,3.14-3.56,5.52-3.6c4.65-0.19,9,2.3,11.2,6.4c0,0,3.14-17.84,16.13-15.82s11.42,16.16,11.42,16.16
								c2.87-1.76,6.62-0.86,8.38,2.01C225.47,481.27,225.51,481.35,225.56,481.43z"/>
						</g>
					</g>
				</g>
			</g>
			<g id="Group_105" transform="translate(1575.765 525.694)">
				<g id="Group_104" transform="translate(0 0)">
					<g id="Group_103">
						<g id="Group_102">
							<path id="Path_104" class="st8" d="M148.78,557.5c10.94-1.7,13.58,13.31,13.58,13.31c1.86-3.45,5.51-5.54,9.43-5.38
								c2,0.03,3.81,1.2,4.65,3.02c2.12,4.29,0.37,9.49-3.93,11.62c-0.7,0.35-1.45,0.6-2.22,0.75c-9.91,2.02-26.98,0.76-33.05,0.22
								c-2.22-0.18-4.2-1.46-5.26-3.42c-0.81-1.45-0.8-3.21,0.03-4.65c1.37-2.48,4.49-3.38,6.97-2c0.07,0.04,0.13,0.07,0.19,0.11
								C139.18,571.08,137.85,559.2,148.78,557.5z"/>
						</g>
					</g>
				</g>
			</g>
			<g id="Group_109" transform="translate(1576.485 455.556)">
				<g id="Group_108" transform="translate(0 0)">
					<g id="Group_107">
						<g id="Group_106">
							<path id="Path_105" class="st8" d="M149.95,443.32c10.94-1.7,13.58,13.31,13.58,13.31c1.86-3.45,5.51-5.54,9.43-5.38
								c2,0.03,3.81,1.2,4.65,3.02c2.12,4.3,0.35,9.5-3.94,11.61c-0.7,0.34-1.44,0.59-2.2,0.74c-9.91,2.03-26.98,0.76-33.05,0.22
								c-2.22-0.18-4.2-1.46-5.26-3.42c-0.81-1.45-0.8-3.21,0.03-4.65c1.37-2.48,4.49-3.37,6.97-2c0.07,0.04,0.13,0.07,0.2,0.11
								C140.34,456.89,139.02,445.01,149.95,443.32z"/>
						</g>
					</g>
				</g>
			</g>
			<g id="Group_113" transform="translate(1598.271 500.548)">
				<g id="Group_112" transform="translate(0 0)">
					<g id="Group_111">
						<g id="Group_110">
							<path id="Path_106" class="st8" d="M192.56,516.62c15.51-2.41,19.24,18.87,19.24,18.87c2.63-4.89,7.81-7.84,13.36-7.62
								c2.84,0.04,5.4,1.71,6.59,4.29c3.02,6.07,0.54,13.44-5.53,16.45c-1,0.5-2.07,0.86-3.17,1.07
								c-14.04,2.87-38.24,1.08-46.84,0.31c-3.03-0.18-5.75-1.96-7.14-4.66c-1.26-2.05-1.37-4.61-0.28-6.75
								c3.47-6.42,10.15-2.68,10.15-2.68S177.06,519.03,192.56,516.62z"/>
						</g>
					</g>
				</g>
			</g>
		</g>
		<g id="Group_133" transform="translate(111.565 272.601)">
			<path id="Path_84" class="st6" d="M272.28,783.7L272.28,783.7c-1.92,0-3.48-1.56-3.48-3.48l0,0V560.57h6.97v219.65
				C275.76,782.14,274.2,783.7,272.28,783.7z"/>
			<g id="Group_52" transform="translate(33.52 52.013)">
				<path id="Rectangle_6" class="st6" d="M238.76,455.64L238.76,455.64c0.97,0,1.76,0.79,1.76,1.76v6.58
					c0,0.97-0.79,1.76-1.76,1.76l0,0c-0.97,0-1.76-0.79-1.76-1.76v-6.58C237,456.43,237.78,455.64,238.76,455.64z"/>
				<g>
					<g transform="matrix(1, 0, 0, 1, -145.08, -324.61)">
						<path id="Path_85-3" class="st5" d="M394.8,829.88h-21.91l-4.15-39.69h30.22L394.8,829.88z"/>
					</g>
					<g transform="matrix(1, 0, 0, 1, -145.08, -324.61)">
						<path id="Path_85-4" class="st5" d="M394.8,829.88h-21.91l-4.15-39.69h30.22L394.8,829.88z"/>
					</g>
				</g>
				<path id="Path_86" class="st9" d="M249.71,520.15h-21.91l-3.58-17.04c-0.26-1.24,0.53-2.46,1.78-2.72
					c0.16-0.03,0.32-0.05,0.47-0.05h24.55c1.27,0,2.3,1.03,2.3,2.3c0,0.16-0.02,0.32-0.05,0.47L249.71,520.15z"/>
				<path id="Rectangle_7" class="st6" d="M221.5,462.02h34.51l0,0l0,0c0,3.51-2.85,6.36-6.36,6.36h-21.79
					C224.35,468.38,221.5,465.53,221.5,462.02L221.5,462.02L221.5,462.02z"/>
				<path id="Path_87" class="st9" d="M258.92,463.84H218.6c-1.16,0-2.1-0.94-2.1-2.1l0,0c0-1.92,1.56-3.47,3.47-3.47h37.56
					c1.92,0,3.47,1.56,3.47,3.47l0,0C261.01,462.89,260.07,463.83,258.92,463.84z"/>
			</g>
			<path id="Rectangle_8" class="st6" d="M263.4,571.86h17.8c1.68,0,3.04,1.36,3.04,3.04v0c0,1.68-1.36,3.04-3.04,3.04h-17.8
				c-1.68,0-3.04-1.36-3.04-3.04v0C260.36,573.22,261.72,571.86,263.4,571.86z"/>
		</g>
		<g id="Group_12" transform="translate(-102.149 53.584)">
			<path id="Path_8" class="st6" d="M449.15,247.64c-6.86,2.85-6.74,3.62-6.39,4.48s0.82,1.5,7.69-1.36
				c6.86-2.85,13.69-6.51,13.28-7.36C463.12,242.19,456.01,244.78,449.15,247.64"/>
			<path id="Path_9" class="st6" d="M411.6,265.08c-0.36-0.86-0.82-1.49-7.68,1.36c-6.86,2.85-13.7,6.51-13.28,7.36
				c0.6,1.22,7.72-1.38,14.58-4.23C412.08,266.72,411.96,265.95,411.6,265.08"/>
			<path id="Path_10" class="st6" d="M429.27,241.85c0.93,0.11,1.7,0.02,2.63-7.36s1.12-15.12,0.19-15.18
				c-1.36-0.08-2.63,7.38-3.55,14.76c-0.92,7.38-0.19,7.65,0.74,7.77"/>
			<path id="Path_11" class="st6" d="M425.09,275.34c-0.93-0.11-1.7-0.02-2.63,7.36c-0.93,7.38-1.12,15.12-0.19,15.18
				c1.36,0.08,2.63-7.39,3.55-14.76C426.74,275.74,426.01,275.46,425.09,275.34"/>
			<path id="Path_12" class="st6" d="M395.89,234.36c-0.76,1.12,5.01,6.03,10.89,10.58c5.88,4.55,6.49,4.07,7.06,3.32
				c0.57-0.74,0.88-1.45-4.99-6C402.97,237.72,396.41,233.59,395.89,234.36"/>
			<path id="Path_13" class="st6" d="M440.52,268.94c-0.57,0.74-0.89,1.45,4.99,6c5.88,4.55,12.44,8.67,12.96,7.9
				c0.76-1.13-5.01-6.03-10.89-10.57C441.71,267.72,441.1,268.2,440.52,268.94"/>
		</g>
		<g id="Group_379" transform="translate(40.126 117.355)">
			<path id="Path_8-2" class="st6" d="M643.63,333.49c-2.51,1.05-2.46,1.31-2.33,1.64c0.13,0.32,0.3,0.55,2.81-0.5
				c2.51-1.04,4.99-2.38,4.85-2.69C648.73,331.51,646.14,332.45,643.63,333.49"/>
			<path id="Path_9-2" class="st6" d="M629.91,339.86c-0.13-0.32-0.3-0.54-2.81,0.5c-1.78,0.56-3.43,1.48-4.85,2.69
				c0.22,0.45,2.82-0.5,5.33-1.55C630.08,340.46,630.04,340.19,629.91,339.86"/>
			<path id="Path_10-2" class="st6" d="M636.37,331.38c0.34,0.04,0.62,0,0.96-2.69c0.39-1.83,0.42-3.71,0.07-5.55
				c-0.49-0.03-0.96,2.7-1.3,5.39S636.03,331.33,636.37,331.38"/>
			<path id="Path_11-2" class="st6" d="M634.85,343.61c-0.34-0.04-0.62,0-0.96,2.69c-0.39,1.83-0.42,3.71-0.07,5.55
				c0.5,0.03,0.96-2.7,1.3-5.39S635.19,343.65,634.85,343.61"/>
			<path id="Path_12-2" class="st6" d="M624.17,328.64c-0.28,0.41,1.84,2.2,3.98,3.86c2.14,1.66,2.37,1.48,2.58,1.21
				c0.21-0.27,0.32-0.53-1.82-2.19C626.76,329.86,624.36,328.35,624.17,328.64"/>
			<path id="Path_13-2" class="st6" d="M640.48,341.27c-0.21,0.26-0.33,0.53,1.82,2.19c2.15,1.67,4.54,3.17,4.73,2.89
				c0.28-0.41-1.84-2.2-3.98-3.86C640.91,340.83,640.68,341.01,640.48,341.27"/>
		</g>
		<g id="Group_402" transform="translate(146.287 176.379)">
			<path id="Path_8-3" class="st6" d="M849.87,445.75c-6.43,2.67-6.31,3.39-5.98,4.2c0.33,0.81,0.77,1.4,7.2-1.27
				c6.43-2.67,12.82-6.09,12.43-6.88C862.96,440.66,856.3,443.09,849.87,445.75"/>
			<path id="Path_9-3" class="st6" d="M814.73,462.07c-0.34-0.81-0.77-1.39-7.19,1.27c-6.42,2.67-12.82,6.1-12.44,6.88
				c0.57,1.14,7.22-1.29,13.65-3.96C815.17,463.6,815.06,462.88,814.73,462.07"/>
			<path id="Path_10-3" class="st6" d="M831.26,440.33c0.87,0.11,1.59,0.02,2.45-6.88c0.86-6.9,1.05-14.15,0.18-14.21
				c-1.27-0.08-2.45,6.91-3.32,13.82C829.71,439.97,830.4,440.23,831.26,440.33"/>
			<path id="Path_11-3" class="st6" d="M827.36,471.68c-0.87-0.11-1.59-0.02-2.45,6.88c-0.86,6.9-1.05,14.15-0.18,14.21
				c1.27,0.08,2.46-6.91,3.32-13.82C828.91,472.05,828.22,471.79,827.36,471.68"/>
			<path id="Path_12-3" class="st6" d="M800.02,433.32c-0.71,1.05,4.69,5.64,10.19,9.9c5.5,4.26,6.07,3.81,6.61,3.11
				s0.83-1.36-4.67-5.62C806.66,436.46,800.52,432.59,800.02,433.32"/>
			<path id="Path_13-3" class="st6" d="M841.8,465.68c-0.53,0.69-0.83,1.36,4.67,5.62c5.5,4.26,11.64,8.12,12.13,7.4
				c0.71-1.05-4.69-5.64-10.19-9.9S842.33,464.99,841.8,465.68"/>
		</g>
		<g id="Group_404" transform="translate(13.507 237.391)">
			<path id="Path_8-4" class="st6" d="M615.1,536.08c-4.24,1.76-4.17,2.24-3.94,2.77c0.23,0.53,0.51,0.93,4.75-0.84
				c4.24-1.76,8.47-4.03,8.21-4.55C623.74,532.71,619.35,534.32,615.1,536.08"/>
			<path id="Path_9-4" class="st6" d="M591.88,546.86c-0.22-0.53-0.51-0.92-4.75,0.84c-4.24,1.76-8.47,4.03-8.22,4.54
				c0.37,0.75,4.77-0.85,9.02-2.63c4.24-1.78,4.17-2.24,3.94-2.77"/>
			<path id="Path_10-4" class="st6" d="M602.81,532.51c0.57,0.07,1.05,0.01,1.62-4.54c0.57-4.56,0.7-9.35,0.12-9.38
				c-0.84-0.05-1.62,4.56-2.19,9.13C601.78,532.27,602.23,532.44,602.81,532.51"/>
			<path id="Path_11-4" class="st6" d="M600.22,553.21c-0.57-0.07-1.05-0.01-1.62,4.55c-0.57,4.56-0.69,9.35-0.12,9.38
				c0.84,0.05,1.62-4.57,2.19-9.13C601.25,553.46,600.8,553.29,600.22,553.21"/>
			<path id="Path_12-4" class="st6" d="M582.17,527.87c-0.47,0.7,3.1,3.72,6.73,6.54c3.63,2.82,4.01,2.52,4.37,2.06
				c0.35-0.46,0.55-0.9-3.09-3.71C586.55,529.94,582.49,527.39,582.17,527.87"/>
			<path id="Path_13-4" class="st6" d="M609.76,549.25c-0.35,0.45-0.55,0.9,3.08,3.71c3.63,2.81,7.69,5.37,8.01,4.89
				c0.47-0.7-3.1-3.73-6.73-6.54C610.49,548.5,610.12,548.79,609.76,549.25"/>
		</g>
		<g id="Group_123" transform="translate(-180.194 156.097)">
			<path id="Path_8-5" class="st6" d="M303.27,405.44c-4.66,1.94-4.58,2.46-4.33,3.04c0.24,0.58,0.56,1.01,5.21-0.92
				s9.29-4.42,9.01-4.99C312.75,401.74,307.92,403.49,303.27,405.44"/>
			<path id="Path_9-5" class="st6" d="M277.79,417.27c-0.24-0.58-0.56-1.01-5.21,0.93c-4.65,1.93-9.3,4.42-9.01,4.99
				c0.41,0.83,5.24-0.94,9.89-2.87S278.03,417.86,277.79,417.27"/>
			<path id="Path_10-5" class="st6" d="M289.78,401.51c0.63,0.08,1.15,0.02,1.78-4.99c0.62-5.01,0.76-10.25,0.13-10.3
				c-0.92-0.06-1.78,5.01-2.4,10.02C288.66,401.24,289.15,401.43,289.78,401.51"/>
			<path id="Path_11-5" class="st6" d="M286.93,424.24c-0.63-0.08-1.15-0.02-1.78,4.99c-0.63,5.01-0.76,10.25-0.13,10.3
				c0.92,0.06,1.78-5.01,2.41-10.02C288.05,424.51,287.56,424.32,286.93,424.24"/>
			<path id="Path_12-5" class="st6" d="M267.13,396.43c-0.53,0.76,3.4,4.09,7.39,7.18c3.99,3.09,4.4,2.76,4.79,2.26
				c0.39-0.5,0.6-0.99-3.38-4.07C271.94,398.71,267.49,395.9,267.13,396.43"/>
			<path id="Path_13-5" class="st6" d="M297.41,419.89c-0.39,0.5-0.6,0.98,3.38,4.07c3.99,3.09,8.44,5.89,8.8,5.36
				c0.53-0.76-3.4-4.09-7.39-7.17C298.22,419.07,297.8,419.4,297.41,419.89"/>
		</g>
		<g id="Group_152" transform="translate(-22.237 106.829)">
			<path id="Path_202" class="st10" d="M826.52,984.58c10.57-2.54,21.3-4.35,32.11-5.41c14.36-1.41,28.44-2.99,42.85-1.87
				c14.89,1.16,29.65,3.64,44.11,7.39c2.18,0.31,4.16,1.44,5.53,3.17c1.61,3.36,0.55,7.39-2.51,9.53c-2.89,1.64-6.21,2.36-9.52,2.06
				l-74.69,0.45c-8.06,0.34-16.14-0.2-24.08-1.63c-8.21-1.56-15.72-5.66-21.48-11.71C821.4,985.85,823.96,985.19,826.52,984.58z"/>
			<g id="Group_151" transform="translate(321.828 243.502)">
				<g id="Group_147" transform="translate(5.437)">
					<g id="Group_146" transform="translate(0)">
						<g id="Group_145">
							<path id="Path_203" class="st11" d="M516.4,578.05c0.58-0.73,1.06-1.53,1.42-2.39c0.97-2.44,1.33-5.09,1.04-7.71
								c-0.16-2.51-0.91-4.94-2.21-7.1c-1.2-2.02-3.22-3.42-5.53-3.83c-2.55-0.36-5.09,0.71-6.62,2.79
								c-1.04-0.23-2.07-0.53-3.09-0.87c-4.74-1.64-9.05-4.31-12.63-7.83c-2.32,8.04-2.56,16.54-0.71,24.7
								c1.9,7.12,5.89,13.51,11.47,18.34c1.28,1.09,2.64,2.07,4.07,2.95c6.14,3.58,13.13,5.43,20.24,5.37
								c3.49,0.06,6.99-0.19,10.44-0.74c-4.47-2.46-8.25-6-10.99-10.31C520.56,587.2,518.25,582.72,516.4,578.05z"/>
							<path id="Path_204" class="st12" d="M537.05,510.51c-1.72-3.31-5.03-4.65-8.1-6.31c-3.3-1.39-6.12-3.72-8.1-6.71
								c0.21,4.13,2.09,8,5.2,10.73c-5.63-2.21-11.9-2.15-17.5,0.14c0.04,0.19,0.22,0.31,0.4,0.27c0.01,0,0.02,0,0.03-0.01
								c2.23,1.84,4.06,3.76,6.28,5.61c-8.7-4.18-18.59-5.21-27.96-2.91c1.1,3.5,2.89,6.75,5.26,9.55
								c-5.79,0.04-11.27-2.58-14.89-7.1c-1.94,10-0.24,20.36,4.79,29.21c1.72,2.98,3.84,5.7,6.31,8.1
								c3.58,3.52,7.89,6.19,12.63,7.83c-2.15-2.4-3.32-5.53-3.28-8.75c4.01,1.54,8.45,1.55,12.47,0.04
								c-0.21-2.73,0.24-5.48,1.31-7.99c5.55,1.73,11.57,0.99,16.53-2.04c-7.73-3.99-13.84-10.51-17.32-18.48
								c6.11,2.61,12.68,3.98,19.33,4.05c-2.06-2.71-3.84-5.61-5.33-8.67c2.32,1.91,4.96,3.4,7.79,4.39
								c0.36-2.88-0.15-5.8-1.48-8.37c3.1,1.41,5.59,3.88,7.03,6.96c1.06-1.76,1.4-3.87,0.95-5.88c2,1.83,3.3,4.3,3.68,6.98
								c9.18,5.57,16.28,14,20.22,24c3.17,7.99,4.51,16.58,3.93,25.16c0.3-1.31,0.54-2.6,0.73-3.94c0.84-5.93,0.66-11.95-0.54-17.82
								c-2.54-12.96-10.51-24.21-21.89-30.91c-0.17-6.09-3.07-11.77-7.91-15.48C538.14,504.94,537.94,507.82,537.05,510.51z"/>
							<path id="Path_205" class="st13" d="M498.12,550.2c-0.04,3.23,1.13,6.35,3.28,8.75c1.01,0.34,2.04,0.64,3.09,0.87
								c1.52-2.08,4.07-3.15,6.62-2.79c2.31,0.42,4.33,1.82,5.53,3.83c1.3,2.15,2.05,4.59,2.21,7.1c0.29,2.61-0.06,5.26-1.04,7.71
								c-0.36,0.86-0.83,1.66-1.42,2.39c1.85,4.68,4.16,9.16,6.89,13.38c2.74,4.31,6.52,7.85,10.99,10.31
								c4.18-0.62,8.28-1.71,12.22-3.24c5.96-2.22,10.95-6.47,14.11-11.99c3.01-5.04,5.26-10.5,6.65-16.2
								c0.58-8.57-0.76-17.17-3.93-25.16c-3.93-10-11.03-18.43-20.22-24c-0.38-2.68-1.68-5.15-3.68-6.98
								c0.45,2.01,0.11,4.11-0.95,5.88c-1.44-3.09-3.93-5.56-7.03-6.96c1.33,2.58,1.84,5.5,1.48,8.37
								c-2.84-0.99-5.48-2.48-7.79-4.39c1.49,3.06,3.27,5.96,5.33,8.67c-6.65-0.07-13.21-1.45-19.33-4.05
								c3.48,7.97,9.59,14.5,17.32,18.48c-4.96,3.03-10.98,3.78-16.53,2.04c-1.08,2.52-1.53,5.26-1.31,7.99
								C506.59,551.74,502.14,551.74,498.12,550.2z"/>
						</g>
					</g>
				</g>
				<path id="Path_206" class="st14" d="M533.12,603.17c3.63-2.48,7.75-4.13,12.09-4.85c3.66-0.57,7.39-0.42,10.99,0.43
					c0.75-2.13,0.15-4.5-1.51-6.02c-1.6-1.31-3.73-1.79-5.74-1.28C543.44,592.5,535.73,597.33,533.12,603.17z"/>
				<path id="Path_207" class="st15" d="M621.16,675.29c1.12,5.44,3.06,10.67,5.76,15.52l0.37-0.22c2.55,4.76,5.49,9.29,8.8,13.55
					c2.16,0.49,4.4-0.36,5.7-2.15c-1.21-14.34-5.01-25.58-13.33-31.29L621.16,675.29z"/>
				<path id="Path_208" class="st15" d="M507.94,729.6c-0.27-1.05-0.39-2.13-0.37-3.22c0.06-1.91,0.43-3.79,1.11-5.57
					c-4.31-4.98-9.8-8.8-15.97-11.11c-2.93,0.29-4.29,2.49-4.73,5.84c2.39,9.55,9.07,17.53,17.72,24.78
					c2.7-1.44,5.25-3.14,7.62-5.06c-1.36-0.22-2.6-0.91-3.5-1.96C508.91,732.23,508.26,730.96,507.94,729.6z"/>
				<path id="Path_209" class="st16" d="M571.44,687.15c-0.76,0.63-1.57,1.18-2.43,1.66c5.36,9.31,12.04,17.8,19.83,25.2l6.7-4.07
					C586.87,703.04,578.81,695.42,571.44,687.15z"/>
				<path id="Path_210" class="st16" d="M540.59,675.37c-2.1-1.3-4.12-2.72-6.04-4.27c-2.59,19.1-11.64,36.73-25.64,49.97
					c-0.08-0.08-0.15-0.17-0.22-0.26c-0.68,1.78-1.06,3.66-1.11,5.57c-0.02,1.08,0.1,2.17,0.37,3.22
					c8.16-6.71,15.18-14.7,20.79-23.65c5.76-9.15,11.01-18.61,15.73-28.34C543.15,676.92,541.86,676.17,540.59,675.37z"/>
				<path id="Path_211" class="st11" d="M481.31,628.13c0.74-3.48,2.44-6.69,4.92-9.24l1.29,0.47c-1.77-4.48-4.87-8.31-8.89-10.96
					c-2.06,0.22-3.97,1.17-5.37,2.69c0.3,1.05,0.71,2.04,1.02,3.09c-2.66,2.64-4.77,5.78-6.2,9.24c0.74,2.63,1.73,5.18,2.94,7.62
					c3.1,1.4,6.55,1.86,9.91,1.31c0.61-0.07,1.2-0.29,1.7-0.65l-1.81-0.98C480.92,629.86,481.09,628.99,481.31,628.13z"/>
				<path id="Path_212" class="st14" d="M482.61,631.71l22.84,12.41l23.02-7.85c0.07,0.2,0.13,0.38,0.18,0.58
					c0.06,0,0.11-0.02,0.16-0.06c1.39-6.18,0.96-12.63-1.24-18.58c-5.31,7.28-12.08,13.37-19.87,17.89
					c-9.06-1.66-17.91-4.33-26.37-7.98c-0.22,0.86-0.39,1.73-0.51,2.6L482.61,631.71z"/>
				<path id="Path_213" class="st17" d="M487.51,619.36l-1.29-0.47c-2.48,2.56-4.18,5.76-4.92,9.24c8.46,3.64,17.31,6.32,26.37,7.98
					c7.79-4.52,14.56-10.61,19.87-17.89c-0.83-2.3-1.95-4.48-3.32-6.49l-19.6,13.77L487.51,619.36z"/>
				<path id="Path_214" class="st18" d="M507.94,729.6c0.32,1.37,0.97,2.64,1.89,3.71c0.9,1.05,2.14,1.74,3.5,1.96
					c15.62-12.07,39.93-38.31,43.83-44.19l11.64-2.63c0.06,0.13,0.14,0.24,0.21,0.36c0.86-0.48,1.67-1.04,2.43-1.66l-0.24-2.97
					c-2.75,0.22-5.51,0.1-8.22-0.36c-6.48-1.03-12.73-3.13-18.51-6.22c-4.72,9.73-9.97,19.19-15.73,28.34
					C523.12,714.89,516.1,722.88,507.94,729.6z"/>
				<path id="Path_215" class="st19" d="M524.56,611.49l-0.33,0.24c1.38,2.01,2.5,4.2,3.32,6.49c2.25-3.01,4.28-6.18,6.04-9.5
					c0.02-1.86-0.14-3.71-0.49-5.53C529.78,605.42,526.89,608.23,524.56,611.49z"/>
				<path id="Path_216" class="st19" d="M528.79,636.79c-0.05,0.03-0.1,0.05-0.16,0.06c3.38,10.18,5.35,20.77,5.87,31.49
					c2.83,0.74,5.69,1.35,8.56,1.81c-2.08-12.05-5.99-23.71-11.6-34.58C530.63,636.08,529.73,636.5,528.79,636.79z"/>
				<path id="Path_217" class="st20" d="M575.45,618.65c-1.92-4.81-4.27-9.43-7.03-13.82c-0.05-0.1-0.11-0.2-0.17-0.29
					c-3.54-2.79-7.65-4.77-12.04-5.78c-3.6-0.86-7.34-1.01-10.99-0.43c-4.34,0.71-8.46,2.37-12.09,4.85c-0.02,0-0.02,0.02-0.02,0.02
					c0.35,1.82,0.51,3.68,0.49,5.53c-1.77,3.31-3.79,6.49-6.04,9.5c2.2,5.94,2.63,12.39,1.24,18.58c0.94-0.3,1.84-0.71,2.67-1.23
					c5.61,10.87,9.52,22.53,11.6,34.58c12.15,1.9,24.53,1.82,36.65-0.24c1.78-0.19,3.5-0.76,5.04-1.66
					c-0.27-14.17-2.46-28.25-6.51-41.83C577.4,623.76,576.48,621.17,575.45,618.65z"/>
				<path id="Path_218" class="st17" d="M534.5,668.34c0.03,0.9,0.05,1.84,0.05,2.73v0.04c1.93,1.54,3.94,2.97,6.04,4.27
					c1.03-1.14,1.93-2.38,2.7-3.71l-0.24-1.52C540.18,669.67,537.33,669.07,534.5,668.34z"/>
				<path id="Path_219" class="st14" d="M544.46,677.6c5.78,3.09,12.04,5.19,18.51,6.22c2.72,0.46,5.48,0.59,8.22,0.36
					c2.05-0.15,4.06-0.62,5.95-1.41c4.14-1.73,7.35-5.13,8.84-9.35v-0.02c-0.65-1.33-1.06-2.77-1.21-4.25
					c-0.02-0.31-0.02-0.61-0.03-0.9c-1.54,0.9-3.26,1.47-5.04,1.66c-12.12,2.06-24.5,2.14-36.65,0.24c0.08,0.51,0.16,1.01,0.24,1.52
					c-0.77,1.33-1.68,2.57-2.7,3.71C541.86,676.17,543.15,676.91,544.46,677.6z"/>
				<path id="Path_220" class="st18" d="M571.2,684.18l0.24,2.97c7.38,8.26,15.44,15.89,24.1,22.79l31.38-19.12
					c-2.7-4.85-4.64-10.08-5.76-15.52c-9.08,5.78-23.46,14.92-23.65,15.16c-2.42-0.13-8.81-10.6-11.52-17.04
					c-1.5,4.23-4.71,7.62-8.84,9.35C575.25,683.56,573.24,684.04,571.2,684.18z"/>
				<path id="Path_221" class="st14" d="M568.41,604.83c2.76,4.38,5.11,9.01,7.03,13.82c5.51,0.65,10.98,1.6,16.39,2.84
					c4.92,5.26,9.32,10.98,13.15,17.08c2.28-0.31,4.6-0.29,6.87,0.06c-4.49-8.36-9.5-16.42-15-24.15
					C587.74,610.26,578.21,607.03,568.41,604.83z"/>
				<path id="Path_222" class="st17" d="M575.44,618.65c1.03,2.52,1.96,5.1,2.8,7.76c4.72-0.18,9.45,0.07,14.13,0.76
					c3.77,3.33,6.81,7.39,8.96,11.94l-0.71,0.44c1.43-0.45,2.89-0.77,4.37-0.96c-3.83-6.1-8.24-11.82-13.15-17.08
					C586.42,620.25,580.95,619.3,575.44,618.65z"/>
				<path id="Path_223" class="st11" d="M604.98,638.58c-1.48,0.18-2.95,0.51-4.37,0.96c-1.1,0.7-2.11,1.51-3.04,2.42
					c-0.37,0.3-0.66,0.7-0.83,1.16c-0.17,0.84,0.04,1.71,0.59,2.37c1.35,1.88,1.06,3.13,1.43,5.52c0.21,1.34,0.64,5.99,1.65,6.76
					c1.35,1.16,3.03,1.88,4.8,2.04c0.63-1,1.05-2.12,1.22-3.28c4.28-1.3,7.88-4.22,10.02-8.15c-0.97-2.69-2.53-5.03-3.64-7.65
					c-0.29-0.67-0.6-1.36-0.97-2.08C609.57,638.3,607.26,638.27,604.98,638.58z"/>
				<g id="Group_150" transform="translate(26.695 37.139)">
					<g id="Group_149" transform="translate(0)">
						<g id="Group_148">
							<path id="Path_224" class="st21" d="M543.41,617.77c-0.34,0.39-0.49,0.9-0.41,1.41c0.4,1.54,2.53,0.16,2.99-0.67
								c0.7-1.31,0.03-3.58-1.42-2.13C544.15,616.81,543.76,617.28,543.41,617.77z"/>
							<path id="Path_225" class="st21" d="M532.59,612.27c-0.47,1.91,0.19,3.93,1.7,5.19c1.76,0.83,3.85,0.52,5.3-0.79
								c1.31-1.82,1.73-4.15,1.11-6.31c-0.23-1.15-0.98-2.12-2.04-2.63c-0.9-0.28-1.87-0.18-2.69,0.29
								C534.27,608.86,533.03,610.42,532.59,612.27z"/>
							<path id="Path_226" class="st5" d="M539.59,616.68c-1.44,1.31-3.54,1.62-5.3,0.79c-1.51-1.26-2.17-3.28-1.7-5.19
								c0.43-1.85,1.68-3.42,3.39-4.25c0.82-0.47,1.79-0.57,2.69-0.29c1.06,0.51,1.81,1.48,2.04,2.63
								C541.31,612.53,540.9,614.86,539.59,616.68z M545.98,618.52c-0.46,0.83-2.59,2.2-2.99,0.67c-0.08-0.51,0.07-1.02,0.41-1.41
								c0.35-0.49,0.74-0.96,1.16-1.39c1.45-1.46,2.12,0.82,1.42,2.12L545.98,618.52z M527.09,622.95
								c10.59,2.07,21.56,0.85,31.43-3.49c1.67-10.76,1.27-21.74-1.18-32.36c-2.56,0.92-5.16,1.68-7.81,2.3
								c0.44,1.97,0.76,3.97,0.95,5.99c-3.11,1.37-6.43,2.22-9.81,2.49c-0.26-2.3-0.57-4.61-0.89-6.93
								c-4.33,0.38-8.69,0.36-13.01-0.07c0.06,0.26,0.09,0.54,0.14,0.81C528.39,602.06,528.45,612.57,527.09,622.95L527.09,622.95z"
								/>
							<path id="Path_227" class="st5" d="M514.49,560.98c6.02,8.11,10.07,17.51,11.83,27.46c4.36,0.36,8.74,0.36,13.09,0
								c-0.48-3.29-0.95-6.57-1.31-9.82c2.19-1.01,4.54-1.66,6.94-1.93c1.69,3.31,3.01,6.79,3.94,10.38
								c2.66-0.53,5.29-1.2,7.88-2.01c-2.21-8.87-5.93-17.3-11.01-24.91C535.59,557,524.58,557.3,514.49,560.98z"/>
							<path id="Path_228" class="st22" d="M548.97,587.06c0.21,0.79,0.4,1.56,0.56,2.33c2.65-0.61,5.25-1.38,7.81-2.3
								c-0.14-0.69-0.32-1.37-0.49-2.04C554.26,585.86,551.63,586.53,548.97,587.06z"/>
							<path id="Path_229" class="st22" d="M526.78,590.88c4.33,0.43,8.68,0.45,13.01,0.07c-0.13-0.85-0.26-1.68-0.37-2.51
								c-4.36,0.36-8.74,0.36-13.09,0C526.5,589.25,526.64,590.06,526.78,590.88z"/>
							<path id="Path_230" class="st22" d="M526.33,588.44c-1.76-9.94-5.81-19.34-11.83-27.46c-0.49,0.14-1,0.33-1.5,0.51
								c-1.54,7.7-1.93,15.58-1.15,23.39c0.22,6.54,0.97,13.06,2.24,19.48c1.18,6.24,3.79,12.12,7.62,17.18
								c1.76,0.58,3.55,1.05,5.36,1.41c1.37-10.38,1.31-20.89-0.18-31.25c-0.05-0.26-0.08-0.54-0.14-0.81
								C526.64,590.06,526.5,589.25,526.33,588.44z"/>
							<path id="Path_231" class="st13" d="M539.78,590.95c0.32,2.32,0.64,4.63,0.89,6.93c3.39-0.28,6.7-1.12,9.81-2.5
								c-0.2-2.01-0.52-4.01-0.95-5.99c-0.16-0.79-0.35-1.56-0.56-2.33c-0.93-3.59-2.25-7.08-3.94-10.38
								c-2.4,0.27-4.74,0.92-6.94,1.93c0.37,3.26,0.84,6.53,1.31,9.82C539.53,589.27,539.65,590.1,539.78,590.95z"/>
						</g>
					</g>
				</g>
			</g>
		</g>
	</g>
</g>
</svg>
